<?xml version="1.0" encoding="UTF-8"?>
<svg width="39px" height="45px" viewBox="0 0 39 45" version="1.1" xmlns="http://www.w3.org/2000/svg" xmlns:xlink="http://www.w3.org/1999/xlink">
    <!-- Generator: Sketch 49.2 (51160) - http://www.bohemiancoding.com/sketch -->
    <title>S_LongjumpColour</title>
    <defs></defs>
    <g id="Page-1" stroke="none" stroke-width="1" fill="none" fill-rule="evenodd">
        <g id="S_LongjumpColour" fill-rule="nonzero">
            <path d="M33.421,30.446 C32.809,32.159 31.934,33.752 30.957,35.284 C29.618,33.94 28.412,32.481 27.502,30.787 C27.408,30.611 27.298,30.458 27.186,30.319 C27.127,29.899 27.014,29.482 26.838,29.076 C25.92,26.965 25.125,25.197 24.354,23.483 C23.704,22.035 23.072,20.631 22.401,19.098 C26.147,17.671 30.031,16.103 33.882,14.3 C34.973,13.79 35.493,12.768 35.242,11.635 C34.953,10.34 33.768,9.363 32.487,9.363 C32.086,9.363 31.687,9.454 31.302,9.635 C27.773,11.287 24.206,12.729 20.18,14.249 C19.709,13.618 19.1,13.125 18.413,12.795 C19.213,9.598 20.306,5.832 21.121,3.741 C21.67,2.329 20.972,0.738 19.56,0.187 C18.146,-0.362 16.557,0.336 16.006,1.748 C14.808,4.824 13.211,10.63 12.409,14.361 C11.497,15.664 11.246,17.389 11.904,18.965 C13.307,22.334 14.419,24.805 15.594,27.419 C16.292,28.97 17.015,30.583 17.829,32.446 C12.563,34.779 6.946,37.465 1.953,39.523 C-1.249,40.843 0.152,46.118 3.401,44.778 C9.774,42.149 17.176,38.492 23.55,35.865 C23.739,35.786 23.91,35.691 24.068,35.588 C25.592,37.747 27.503,39.629 29.495,41.361 C30.899,42.582 32.717,42.302 33.775,40.811 C35.759,38.013 37.515,35.142 38.676,31.901 C39.867,28.578 34.599,27.163 33.421,30.446 Z" id="Shape" fill="#E68C00"></path>
            <circle id="Oval" fill="#FFBB00" cx="6.056" cy="15" r="4.881"></circle>
        </g>
    </g>
</svg>